<?xml version="1.0" standalone="no"?>
<!DOCTYPE svg PUBLIC "-//W3C//DTD SVG 20010904//EN"
 "http://www.w3.org/TR/2001/REC-SVG-20010904/DTD/svg10.dtd">
<svg version="1.0" xmlns="http://www.w3.org/2000/svg"
 width="512.000000pt" height="512.000000pt" viewBox="0 0 512.000000 512.000000"
 preserveAspectRatio="xMidYMid meet">
<metadata>
Created by potrace 1.14, written by Peter Selinger 2001-2017
</metadata>
<g transform="translate(0.000000,512.000000) scale(0.100000,-0.100000)"
fill="#000000" stroke="none">
<path d="M1424 4723 c-308 -177 -568 -328 -579 -335 -49 -29 -231 -134 -390
-226 -61 -35 -117 -67 -125 -73 -8 -5 -80 -47 -160 -93 -149 -86 -178 -114
-166 -159 9 -32 9 -33 161 -162 77 -66 142 -122 145 -125 3 -3 55 -48 115 -99
61 -52 137 -117 169 -145 32 -28 65 -55 73 -61 11 -8 -33 -73 -222 -325 -129
-173 -241 -322 -248 -330 -48 -59 -88 -122 -93 -147 -7 -38 20 -70 96 -111 30
-16 114 -62 185 -102 72 -40 171 -95 222 -123 l92 -51 -1 -391 c0 -214 3 -404
6 -421 21 -114 70 -159 340 -314 252 -144 253 -145 423 -243 740 -428 991
-571 1031 -589 31 -13 68 -20 110 -20 75 0 118 19 372 168 91 53 185 108 210
122 25 14 142 81 260 150 118 69 233 135 255 147 22 13 96 56 165 95 69 40
141 81 160 92 59 34 194 112 211 123 9 6 40 23 70 39 89 47 136 93 170 162
l32 64 0 435 c0 239 3 438 6 443 3 5 130 85 281 177 151 92 283 174 292 182 9
8 20 28 23 44 8 34 -6 58 -76 140 -26 30 -106 124 -179 209 -73 85 -158 183
-188 218 -30 35 -64 75 -76 90 -11 15 -29 35 -39 45 -21 21 -19 25 54 108 31
35 116 134 188 219 73 85 142 166 154 180 12 14 47 55 77 90 30 36 60 71 67
77 21 23 26 72 10 97 -13 19 -126 86 -372 221 -48 26 -417 231 -462 257 -18
10 -48 26 -65 36 -18 10 -73 40 -123 67 -49 26 -94 51 -100 55 -5 4 -35 21
-65 37 -30 17 -174 97 -320 178 -381 213 -371 208 -406 195 -16 -6 -152 -134
-302 -283 -150 -150 -277 -272 -283 -272 -5 0 -135 125 -288 278 -153 152
-283 277 -287 278 -5 0 -19 2 -30 3 -13 2 -243 -125 -580 -321z m814 -106
l243 -244 -668 -408 c-367 -224 -744 -454 -836 -511 -93 -57 -174 -104 -180
-104 -7 0 -25 12 -42 28 -26 24 -114 100 -195 169 -333 283 -341 292 -318 307
21 12 612 355 698 403 19 11 132 77 250 145 284 165 594 344 650 376 25 14 65
38 90 53 25 16 50 29 55 29 6 0 120 -109 253 -243z m1051 217 c25 -14 72 -40
105 -58 34 -19 201 -111 371 -206 171 -95 328 -183 350 -195 148 -82 291 -161
355 -197 72 -40 340 -189 393 -217 26 -14 47 -28 47 -32 0 -3 -18 -26 -39 -50
-32 -36 -304 -353 -376 -438 -11 -13 -33 -39 -50 -58 l-30 -34 -100 62 c-55
34 -113 70 -130 79 -170 99 -1432 877 -1434 885 -3 12 469 485 484 485 6 0 30
-12 54 -26z m-759 -1545 c0 -506 -3 -918 -7 -916 -8 5 -1220 678 -1313 730
-30 16 -84 46 -120 66 -36 20 -82 45 -103 56 -44 23 -48 19 83 97 47 28 108
66 135 83 45 29 347 213 830 508 99 60 248 151 330 202 83 51 153 94 158 94 4
1 7 -413 7 -920z m323 828 c84 -52 172 -106 197 -121 25 -15 106 -64 180 -110
152 -93 374 -229 755 -461 143 -87 265 -163 272 -169 12 -11 -10 -23 -491
-289 -139 -77 -440 -245 -511 -285 -44 -25 -105 -59 -135 -75 -30 -17 -129
-72 -220 -122 -91 -51 -175 -97 -187 -104 l-23 -12 0 921 c0 506 2 920 5 920
3 0 74 -42 158 -93z m-1883 -1065 c80 -44 168 -93 196 -108 29 -16 336 -186
683 -379 347 -192 631 -354 631 -358 0 -4 -19 -34 -42 -65 -61 -83 -450 -606
-454 -611 -1 -2 -51 24 -111 57 -59 32 -130 72 -158 87 -27 15 -63 35 -80 45
-16 9 -61 34 -100 55 -56 31 -322 178 -525 292 -19 11 -62 35 -95 53 -65 36
-478 265 -535 297 -19 11 -45 25 -57 32 -22 11 -14 23 232 352 141 187 259
338 263 336 4 -2 72 -40 152 -85z m3486 41 c22 -25 46 -53 54 -62 9 -9 40 -45
70 -81 30 -36 57 -67 60 -70 3 -3 43 -50 90 -105 46 -55 86 -102 90 -105 3 -3
26 -30 51 -60 l46 -55 -320 -195 c-175 -107 -410 -251 -521 -318 -110 -68
-262 -161 -336 -205 -74 -45 -136 -85 -138 -89 -2 -5 -7 -8 -12 -8 -4 0 -85
-48 -180 -106 -94 -58 -173 -104 -174 -102 -2 2 -112 149 -246 328 -134 179
-247 330 -251 336 -6 7 49 43 159 104 92 51 203 113 247 138 44 25 107 60 140
78 33 18 299 165 590 328 292 162 533 295 536 296 4 0 24 -21 45 -47z m-104
-1450 c0 -231 -4 -378 -10 -395 -6 -14 -26 -37 -44 -51 -26 -19 -500 -296
-727 -424 -24 -14 -156 -90 -294 -170 -526 -304 -576 -333 -582 -333 -3 0 -5
388 -5 862 l0 861 233 -311 c253 -339 269 -355 329 -328 18 8 272 160 563 339
292 179 532 323 534 321 2 -1 3 -169 3 -371z m-1824 -947 l-3 -435 -615 356
c-338 196 -635 367 -660 381 -204 114 -339 197 -362 222 l-28 30 0 355 c0 195
3 355 6 355 3 0 252 -137 552 -304 301 -167 557 -306 569 -310 22 -7 56 6 78
28 6 6 69 90 141 186 71 96 172 232 224 302 l95 128 3 -429 c1 -236 1 -625 0
-865z"/>
</g>
</svg>
